# xmcd CD database file generated by Grip 2.96
# 
# Track frame offsets:
#       150
#       14992
#       30997
#       42295
#       52817
#       68535
#       80692
#       93402
#       106820
#       114937
#       127482
#       141462
# 
# Disc length: 2034 seconds
# 
# Revision: 0
# Processed by: cddbd v1.4PL0 Copyright (c) Steve Scherf et al.
# Submitted via: Grip 2.96
# 
DISCID=a207f00c
DTITLE=Various Artist - Country Gospel 3
DYEAR=1900
DGENRE=
TTITLE0=Connie Smith - Jesus Is Your Ticket To Heaven
TTITLE1=J. D. Summer and The Stamps - His Hand In Mine
TTITLE2=Porter Wagoner - What Would You Do (If Jesus Came To Your House)
TTITLE3=Don Gibson - There Is Power In The Blood
TTITLE4=Jack Greene - Why Me (Lord)
TTITLE5=Sandy Posey - Lets_All_Go_Down_To_The_River
TTITLE6=Jan Howard - Just As I Am
TTITLE7=David Houston - When They Ring Those Golden Bells
TTITLE8=The Jordanaires - Turn Your Radio On
TTITLE9=Charlie Louvin - The Family Who Prays
TTITLE10=Ray Price - Love Lifted Me
TTITLE11=Jeannie Pruett - Standing On The Promises
EXTD=
EXTT0=
EXTT1=
EXTT2=
EXTT3=
EXTT4=
EXTT5=
EXTT6=
EXTT7=
EXTT8=
EXTT9=
EXTT10=
EXTT11=
PLAYORDER=
